<?xml version="1.0" encoding="UTF-8" standalone="no"?>
<!-- Created with Inkscape (http://www.inkscape.org/) -->
<svg
   xmlns:dc="http://purl.org/dc/elements/1.1/"
   xmlns:cc="http://web.resource.org/cc/"
   xmlns:rdf="http://www.w3.org/1999/02/22-rdf-syntax-ns#"
   xmlns:svg="http://www.w3.org/2000/svg"
   xmlns="http://www.w3.org/2000/svg"
   xmlns:sodipodi="http://sodipodi.sourceforge.net/DTD/sodipodi-0.dtd"
   xmlns:inkscape="http://www.inkscape.org/namespaces/inkscape"
   width="300"
   height="100"
   id="svg2"
   sodipodi:version="0.32"
   inkscape:version="0.45.1"
   version="1.0"
   inkscape:export-filename="/var/www/gleva/img/titol.png"
   inkscape:export-xdpi="90"
   inkscape:export-ydpi="90"
   sodipodi:docbase="/var/www/gleva/img"
   sodipodi:docname="titol.svg"
   inkscape:output_extension="org.inkscape.output.svg.inkscape">
  <defs
     id="defs4" />
  <sodipodi:namedview
     id="base"
     pagecolor="#ffffff"
     bordercolor="#666666"
     borderopacity="1.0"
     gridtolerance="10000"
     guidetolerance="10"
     objecttolerance="10"
     inkscape:pageopacity="0.0"
     inkscape:pageshadow="2"
     inkscape:zoom="3.0070175"
     inkscape:cx="149.75286"
     inkscape:cy="50.424831"
     inkscape:document-units="px"
     inkscape:current-layer="layer1"
     width="300px"
     height="100px"
     inkscape:window-width="980"
     inkscape:window-height="735"
     inkscape:window-x="0"
     inkscape:window-y="0" />
  <metadata
     id="metadata7">
    <rdf:RDF>
      <cc:Work
         rdf:about="">
        <dc:format>image/svg+xml</dc:format>
        <dc:type
           rdf:resource="http://purl.org/dc/dcmitype/StillImage" />
      </cc:Work>
    </rdf:RDF>
  </metadata>
  <g
     inkscape:label="fons"
     inkscape:groupmode="layer"
     id="capa1"
     style="display:inline"
     sodipodi:insensitive="true">
    <path
       id="path14196"
       style="fill:none;fill-rule:evenodd;stroke:#55200f;stroke-width:2.64127874;stroke-linecap:round;stroke-linejoin:round;stroke-miterlimit:4;stroke-dasharray:none;stroke-opacity:0.78431373;display:inline"
       d="M 296.86766,9.5283672 C 292.60846,9.5283672 276.96722,96.242652 272.23478,96.242652 C 267.50234,96.242652 293.6644,13.179493 287.03713,12.723105 C 280.40985,12.266712 271.76527,97.155433 261.81967,95.32987 C 251.87409,93.504307 284.65411,8.6155865 281.3414,8.6155865 C 278.0287,8.6155865 258.49951,93.504307 254.21979,88.484007 C 249.94007,83.463707 277.086,11.079691 274.25207,10.897538 C 267.15156,10.441149 249.98298,93.960695 245.73125,95.786258 C 241.47952,97.611821 270.91698,5.4208483 268.07752,5.4208483 C 265.23805,5.4208483 248.54831,90.309569 240.4957,88.484002 C 232.44309,86.658438 265.72995,9.984756 260.05103,9.984756 C 254.3721,9.984756 236.2477,91.222351 230.09553,91.222351 C 223.94336,91.222351 257.20036,7.2464118 252.94117,7.2464118 C 248.68198,7.2464118 227.74609,95.32987 223.48504,94.873477 C 219.22398,94.417089 253.87647,4.5080671 247.24919,4.0516738 C 240.62189,3.5952857 223.95456,93.960695 218.2663,91.678739 C 212.57804,89.396788 242.99184,4.5080671 237.31665,5.4208483 C 231.64145,6.3336301 211.17323,93.047914 204.54782,93.047914 C 197.9224,93.047914 237.78616,4.5080671 233.05372,4.5080671 C 228.32128,4.5080671 203.13368,94.417089 198.40311,94.873477 C 193.67253,95.32987 226.43762,6.790023 222.65168,6.790023 C 218.86573,6.790023 196.01823,90.309569 190.33929,90.309569 C 184.66037,90.309569 221.2618,14.092275 215.10216,12.266712 C 208.94252,10.441149 188.437,88.027614 182.37663,88.255376 C 176.61537,87.570359 206.96048,9.983895 199.60435,11.809463 C 192.24822,13.635025 178.8964,89.852315 173.21746,89.852315 C 167.53853,89.852315 199.43025,6.3327692 195.64429,6.3327692 C 191.85834,6.3327692 166.5939,94.872615 162.16244,94.416223 C 157.73098,93.959834 191.47029,4.0508127 186.73785,4.0508127 C 182.00541,4.0508127 163.83963,92.59066 157.21421,92.59066 C 150.58879,92.59066 186.95364,5.8763804 181.87668,4.9635993 C 176.79973,4.0508127 151.57696,88.939534 144.3931,91.221485 C 137.20924,93.503441 179.76794,3.1380314 172.84152,3.5944246 C 165.91512,4.0508127 141.64068,93.959834 137.0805,94.416223 C 132.52032,94.872615 169.31487,6.7891622 165.05568,6.7891622 C 160.79649,6.7891622 139.01516,90.765097 132.86298,90.765097 C 126.7108,90.765097 161.83003,9.5275063 156.15109,9.5275063 C 150.47217,9.5275063 133.50664,86.201185 124.25754,88.026747 C 115.00844,89.852315 153.95528,4.9635993 151.11582,4.9635993 C 148.27635,4.9635993 117.2913,97.154567 114.23605,95.329004 C 111.18081,93.503441 148.75145,9.983895 141.3518,10.440288 C 138.39849,10.622442 118.10351,83.006451 110.53345,88.026752 C 102.9634,93.047052 139.07078,8.1583316 135.75807,8.1583316 C 132.44536,8.1583316 109.58882,93.047052 98.446746,94.872615 C 87.304676,96.698178 134.29666,11.809463 127.37025,12.26585 C 120.44385,12.722244 92.165832,95.785397 87.433403,95.785397 C 82.700962,95.785397 128.14263,6.7891622 121.62091,9.7552697 C 113.1801,13.177772 87.922105,90.764236 81.874289,88.938672 C 75.826471,87.11311 117.09651,10.895815 111.41758,10.895815 C 105.73865,10.895815 77.775256,94.415367 73.989305,94.415367 C 70.203353,94.415367 108.39186,5.8755143 103.63332,6.3319082 C 98.874795,6.788296 68.179927,96.697318 63.447483,96.697318 C 58.715044,96.697318 104.00221,8.1574707 97.376792,8.1574707 C 90.751373,8.1574707 64.971578,94.871755 59.240464,95.784537 C 53.509359,96.697318 89.122928,11.808597 83.574446,9.5266454 C 78.025965,7.244689 55.823402,97.610099 49.224072,97.153711 C 42.624747,96.697318 82.784496,6.788296 78.551389,6.3319082 C 74.318286,5.8755143 47.986967,93.958973 43.727775,93.958973 C 39.468576,93.958973 77.869424,9.983033 71.71725,9.983033 C 65.565078,9.983033 42.464581,91.220629 36.785645,91.220629 C 31.10672,91.220629 69.090138,14.546946 61.149346,12.721382 C 53.208554,10.895815 31.319064,95.784537 28.479595,95.784537 C 25.640133,95.784537 60.724652,3.5935635 56.361092,5.4191265 C 51.997538,7.244689 29.713075,90.764236 22.640503,90.307848 C 19.817743,90.125694 51.39747,17.741677 47.425259,12.721378 C 43.453047,7.7010777 18.724108,92.589798 15.411397,92.589798 C 12.098689,92.589798 50.078467,7.7010777 40.244712,5.8755143 C 30.410942,4.0499516 16.566601,88.938672 9.9672787,88.482285 C 3.3679439,88.025891 34.617953,4.962733 29.885514,4.962733 C 25.153076,4.962733 6.8147312,93.958973 2.5555393,93.958973"
       sodipodi:nodetypes="csssssssssssssssssssssscsssssssssssssssssssssscssssssssssssssssssssssc" />
    <path
       id="path13192"
       style="fill:none;fill-rule:evenodd;stroke:#803300;stroke-width:2.64127874;stroke-linecap:round;stroke-linejoin:round;stroke-miterlimit:4;stroke-dasharray:none;stroke-opacity:0.78431373;display:inline"
       d="M 26.105675,8.843352 C 23.266206,11.125308 -1.7165863,94.188459 3.0158517,94.188459 C 7.7482909,94.188459 29.267242,11.581697 36.195515,11.125308 C 43.123781,10.668915 -4.2152685,95.557634 6.9342671,93.732072 C 18.083804,91.906508 41.287411,7.0177886 44.60012,7.0177886 C 47.912831,7.0177886 11.458384,91.906508 19.048967,86.886207 C 26.63955,81.865907 47.230468,9.4818948 50.184513,9.2997429 C 57.586024,8.843352 19.673928,92.362896 22.721712,94.188459 C 25.769496,96.014021 57.131459,3.8230524 59.970922,3.8230524 C 62.81039,3.8230524 23.516486,88.711771 32.773048,86.886202 C 42.029607,85.06064 59.308613,8.3869612 64.987539,8.3869612 C 70.66647,8.3869612 35.215125,89.624551 41.367298,89.624551 C 47.519471,89.624551 69.644126,5.648616 73.903323,5.648616 C 78.162514,5.648616 41.007843,93.732072 45.56989,93.275677 C 50.131937,92.81929 74.773954,2.9102705 81.702227,2.4538795 C 88.630498,1.9974887 45.702354,92.362896 52.895549,90.08094 C 60.088738,87.798989 85.658562,2.9102705 90.731793,3.8230524 C 95.805011,4.7358338 59.08565,91.450115 65.711064,91.450115 C 72.336484,91.450115 90.864256,2.9102705 95.596685,2.9102705 C 100.32913,2.9102705 66.222233,92.81929 70.651823,93.275677 C 75.081413,93.732072 100.70785,5.192225 104.4938,5.192225 C 108.27974,5.192225 76.046577,88.711771 81.725501,88.711771 C 87.404436,88.711771 101.06787,12.49448 108.43147,10.668915 C 115.79504,8.843352 85.132752,86.429814 91.042905,86.657577 C 97.255922,85.972559 118.07866,8.3861002 124.23084,10.211664 C 130.38301,12.037228 93.469976,88.254516 99.148899,88.254516 C 104.82784,88.254516 128.0168,4.7349732 131.80274,4.7349732 C 135.58869,4.7349732 102.4616,93.274816 107.19405,92.818424 C 111.9265,92.362034 137.48167,2.4530186 142.21411,2.4530186 C 146.94655,2.4530186 106.7208,90.99286 113.34622,90.99286 C 119.97164,90.99286 140.79438,4.2785819 146.47332,3.3658005 C 152.15224,2.4530186 121.39138,87.341734 127.0703,89.623685 C 132.74923,91.905642 149.78602,1.5402367 156.41144,1.9966277 C 163.03686,2.4530186 128.0168,92.362034 132.27598,92.818424 C 136.53518,93.274816 157.83117,5.1913639 162.09036,5.1913639 C 166.34956,5.1913639 132.74923,89.167298 138.9014,89.167298 C 145.05357,89.167298 163.51009,7.9297093 169.18903,7.9297093 C 174.86795,7.9297093 141.26763,84.603384 149.31278,86.428948 C 157.35792,88.254516 174.39472,3.3658005 177.23418,3.3658005 C 180.07363,3.3658005 150.25926,95.556768 154.51846,93.731204 C 158.77765,91.905642 176.28769,8.3861002 183.38635,8.8424911 C 186.21952,9.0246431 158.77765,81.408653 163.03686,86.428954 C 167.29605,91.449254 187.1723,6.5605368 190.48501,6.5605368 C 193.79772,6.5605368 160.67063,91.449254 170.60876,93.274816 C 180.54688,95.100379 189.53851,10.211664 196.16393,10.668054 C 202.78935,11.124446 176.28769,94.187598 181.02014,94.187598 C 185.75257,94.187598 199.00341,5.1913639 203.569,8.1574738 C 209.75269,11.579977 183.84285,89.166437 191.09461,87.340873 C 198.34638,85.515311 207.34122,9.2980201 213.02015,9.2980201 C 218.69908,9.2980201 191.5818,92.817567 195.36775,92.817567 C 199.1537,92.817567 219.35673,4.2777198 223.81428,4.734113 C 228.27182,5.1905012 199.6722,95.099518 204.40464,95.099518 C 209.13708,95.099518 222.24144,6.5596759 228.86686,6.5596759 C 235.49228,6.5596759 204.08449,93.273955 209.21363,94.186736 C 214.34276,95.099518 234.71283,10.210802 241.76624,7.9288506 C 248.81966,5.6468942 211.42674,96.012299 218.32706,95.555912 C 225.22737,95.099518 244.36212,5.1905012 248.89622,4.734113 C 253.4303,4.2777198 221.67107,92.361173 225.93027,92.361173 C 230.18947,92.361173 247.17027,8.3852382 253.32245,8.3852382 C 259.47463,8.3852382 228.99939,89.622829 234.67832,89.622829 C 240.35725,89.622829 252.9397,12.949151 262.08443,11.123589 C 271.22917,9.2980201 237.13502,94.186736 239.9745,94.186736 C 242.81396,94.186736 268.52888,1.9957688 271.68849,3.8213316 C 274.84809,5.6468942 242.05187,89.166437 249.42544,88.710047 C 252.36833,88.527893 268.52545,16.143885 275.80852,11.123584 C 283.09159,6.1032829 251.83689,90.991999 255.14961,90.991999 C 258.46232,90.991999 276.46617,6.1032829 287.50389,4.2777198 C 298.54159,2.452157 256.4023,87.340873 263.30261,86.884485 C 270.20293,86.428092 291.83964,6.5596759 296.57207,6.5596759 C 301.30451,6.5596759 271.83495,88.710047 266.62925,91.448392"
       sodipodi:nodetypes="csssssssssssssssssssssscsssssssssssssssssssssscssssssssssssssssssssssc" />
  </g>
  <g
     inkscape:groupmode="layer"
     id="layer1"
     inkscape:label="latofona"
     style="display:inline"
     sodipodi:insensitive="true">
    <text
       xml:space="preserve"
       style="font-size:66.04108429px;font-style:oblique;font-variant:normal;font-weight:bold;font-stretch:normal;text-align:start;line-height:300%;writing-mode:lr-tb;text-anchor:start;fill:#ffffff;fill-opacity:1;stroke:none;stroke-width:1px;stroke-linecap:butt;stroke-linejoin:miter;stroke-opacity:1;display:inline;font-family:URW Gothic L"
       x="12.660383"
       y="67.128357"
       id="text3134"
       sodipodi:linespacing="300%"
       transform="scale(0.8840595,1.1311456)"><tspan
         sodipodi:role="line"
         id="tspan3136"
         x="12.660383"
         y="67.128357"
         style="font-size:66.04108429px;font-style:oblique;font-variant:normal;font-weight:bold;font-stretch:normal;text-align:start;line-height:300%;writing-mode:lr-tb;text-anchor:start;font-family:URW Gothic L">La Tòfona</tspan></text>
  </g>
</svg>
